/* XPM */
static char * arrow_xpm[] = {
"15 60 3 1",
" 	c #8b0000",
".	c #000000",
"+	c #CD9900",
"               ",
"               ",
"               ",
"       .       ",
"      .+.      ",
"     .+++.     ",
"    .+++++.    ",
"   .+++++++.   ",
"  .+++++++++.  ",
" .....+++..... ",
"     .+++.     ",
"     .+++.     ",
"     .+++.     ",
"     .+++.     ",
"     .+++.     ",
"     .+++.     ",
"     .+++.     ",
"     .+++.     ",
"     .+++.     ",
"     .+++.     ",
"     .+++.     ",
"     .+++.     ",
"     .+++.     ",
"     .+++.     ",
"     .+++.     ",
"     .+++.     ",
"     .+++.     ",
"     .+++.     ",
"     .+++.     ",
"     .+++.     ",
"     .+++.     ",
"     .+++.     ",
"     .+++.     ",
"     .+++.     ",
"     .+++.     ",
"     .+++.     ",
"     .+++.     ",
"     .+++.     ",
"     .+++.     ",
"     .+++.     ",
"     .+++.     ",
"     .+++.     ",
"     .+++.     ",
"     .+++.     ",
"     .+++.     ",
"     .+++.     ",
"     .+++.     ",
"     .+++.     ",
"     .+++.     ",
"     .+++.     ",
"     .+++.     ",
"     .+++.     ",
"     .+++.     ",
"     .+++.     ",
"     .+++.     ",
"     .....     ",
"               ",
"               ",
"               ",
"               "};
