/* XPM */
static char * home_xpm[] = {
"60 30 2 1",
" 	c #000000",
".	c #FFFFFF",
"............................................................",
".                                                          .",
". ........................................................ .",
". .                                                      . .",
". . .................................................... . .",
". . .................................................... . .",
". . .................................................... . .",
". . .................................................... . .",
". . .................................................... . .",
". . .................................................... . .",
". . ........  ...  ..................................... . .",
". . ........  ...  ..................................... . .",
". . ........  ...  ..    .. .   .   ...    ............. . .",
". . ........  ...  .  ..  .  ..  ..  .  ..  ............ . .",
". . ........       .  ..  .  ..  ..  .  ..  ............ . .",
". . ........  ...  .  ..  .  ..  ..  .      ............ . .",
". . ........  ...  .  ..  .  ..  ..  .  ................ . .",
". . ........  ...  .  ..  .  ..  ..  .  ..  ............ . .",
". . ........  ...  ..    ..  ..  ..  ..    ............. . .",
". . .................................................... . .",
". . .................................................... . .",
". . .................................................... . .",
". . .................................................... . .",
". . .................................................... . .",
". . .................................................... . .",
". . .................................................... . .",
". .                                                      . .",
". ........................................................ .",
".                                                          .",
"............................................................"};
