/* XPM */
static char *m_[] = {
/* columns rows colors chars-per-pixel */
"50 18 2 1",
"  c #ffffff",
". c #000000",
"                                                  ",
" ................................................ ",
" .                                              . ",
" .                                              . ",
" .             .                                . ",
" .    .......  .                                . ",
" .       .     .                                . ",
" .       .     . ..   . ..   ..   .       .     . ",
" .       .     ..  .  ..    .  .  .   .   .     . ",
" .       .     .   .  .    .    .  .  .  .      . ",
" .       .     .   .  .    .    .  . . . .      . ",
" .       .     .   .  .    .    .  . . . .      . ",
" .       .     .   .  .     .  .    .   .       . ",
" .       .     .   .  .      ..     .   .       . ",
" .                                              . ",
" .                                              . ",
" ................................................ ",
"                                                  "
};
