/* XPM */
static char * m5_xpm[] = {
"50 18 3 1",
" 	c None",
".	c #FFFFFF",
"+	c #000000",
"..................................................",
".++++++++++++++++++++++++++++++++++++++++++++++++.",
".+..............................................+.",
".+..............................................+.",
".+...........................+..................+.",
".+........+.......+..........+...+..............+.",
".+........+.......+..............+..............+.",
".+........+...+...+...+++....+..++++............+.",
".+........+...+...+..+...+...+...+..............+.",
".+.........+.+.+.+.......+...+...+..............+.",
".+.........+.+.+.+....++++...+...+..............+.",
".+.........+.+.+.+...+...+...+...+..............+.",
".+..........+...+....+...+...+...+..............+.",
".+..........+...+.....+++.+..+....++............+.",
".+..............................................+.",
".+..............................................+.",
".++++++++++++++++++++++++++++++++++++++++++++++++.",
".................................................."};
