/* XPM */
static char * m51_xpm[] = {
"50 18 3 1",
" 	c None",
".	c #00cc00",
"+	c #000000",
"..................................................",
".++++++++++++++++++++++++++++++++++++++++++++++++.",
".+..............................................+.",
".+...........+..................................+.",
".+...++++....+........................+.........+.",
".+...+...+...+......................+++.........+.",
".+...+...+...+...+++...+...+..........+.........+.",
".+...+...+...+..+...+..+...+..........+.........+.",
".+...+...+...+......+..+...+..........+.........+.",
".+...++++....+...++++...+.+...........+.........+.",
".+...+.......+..+...+...+.+...........+.........+.",
".+...+.......+..+...+....+............+.........+.",
".+...+.......+...+++.+...+............+.........+.",
".+......................+.......................+.",
".+.....................++.......................+.",
".+..............................................+.",
".++++++++++++++++++++++++++++++++++++++++++++++++.",
".................................................."};
