/* XPM */
static char * m52_xpm[] = {
"50 18 3 1",
" 	c None",
".	c #cc0000",
"+	c #000000",
"..................................................",
".++++++++++++++++++++++++++++++++++++++++++++++++.",
".+..............................................+.",
".+...........+..................................+.",
".+...++++....+......................++++........+.",
".+...+...+...+.....................+....+.......+.",
".+...+...+...+...+++...+...+............+.......+.",
".+...+...+...+..+...+..+...+............+.......+.",
".+...+...+...+......+..+...+...........+........+.",
".+...++++....+...++++...+.+...........+.........+.",
".+...+.......+..+...+...+.+..........+..........+.",
".+...+.......+..+...+....+..........+...........+.",
".+...+.......+...+++.+...+.........++++++.......+.",
".+......................+.......................+.",
".+.....................++.......................+.",
".+..............................................+.",
".++++++++++++++++++++++++++++++++++++++++++++++++.",
".................................................."};
