/* XPM */
static char * S3_xpm[] = {
"60 60 4 1",
" 	c #8b0000",
".	c #000000",
"+	c #CCCCCC",
"@	c #FF0000",
"                                                            ",
"                                                            ",
"                                                            ",
"                                                            ",
"                                                            ",
"                                                            ",
"                         ..........                         ",
"                      ...++++++++++...                      ",
"                   ...++++++++++++++++...                   ",
"                  .++++++++++++++++++++++.                  ",
"                ..++++++++++++++++++++++++..                ",
"               .++++++++++++++++++++++++++++.               ",
"              .++++++++++++++++++++++++++++++.              ",
"             .++++++++++++++++++++++++++++++++.             ",
"            .++++++++++++++++++++++++++++++++++.            ",
"           .+++..................+++++++++++++++.           ",
"          .++...@@...@@...@@@@@@@...+++++++++++++.          ",
"          ...@@@..@@@..@@@@@@@@@@@@@..++++++++++++.         ",
"         ..@@@@.@@@@.@@@@@@@@@@@@@@@@@.+++++++++++.         ",
"        ..@@@@.@@@@.@@@@@@@@@@@@@@@@@@@.+++++++++++.        ",
"        .@@@@.@@@@.@@@@@@@@@@@@@@@@@@@@@.++++++++++.        ",
"       .@@@@.@@@@.@@@@@@@@@@@@@@@@@@@@@@@.+++++++++.        ",
"      .@@@@.@@@@.@@@@@@@@@@@@@@@@@@@@@@@@@.+++++++++.       ",
"      .@@@@.@@@@.@@@@@@@@@@@@@@@@@@@@@@@@@.+++++++++.       ",
"     .@@@@.@@@@.@@@@@@@@@@@@@@@@@@@@@@@@@@@.++++++++.       ",
"     .@@@@.@@@@.@@@@@@@@@@@@@@@@@@@@@@@@@@@.+++++++++.      ",
"    .@@@@.@@@@.@@@@@@@@@@@@@@@@@@@@@@@@@@@@@.++++++++.      ",
"    .@@@@.@@@@.@@@@@@@@@@@@@@@@@@@@@@@@@@@@@.++++++++.      ",
"    .@@@@.@@@@.@@@@@@@@@@@@@@@@@@@@@@@@@@@@@.++++++++.      ",
"    .@@@@.@@@@.@@@@@@@@@@@@@@@@@@@@@@@@@@@@@.++++++++.      ",
"    .@@@@.@@@@.@@@@@@@@@@@@@@@@@@@@@@@@@@@@@.++++++++.      ",
"    .@@@@.@@@@.@@@@@@@@@@@@@@@@@@@@@@@@@@@@@.++++++++.      ",
"    .@@@@.@@@@.@@@@@@@@@@@@@@@@@@@@@@@@@@@@@.++++++++.      ",
"    .@@@@.@@@@.@@@@@@@@@@@@@@@@@@@@@@@@@@@@@.++++++++.      ",
"     .@@@@.@@@@.@@@@@@@@@@@@@@@@@@@@@@@@@@@.+++++++++.      ",
"     .@@@@.@@@@.@@@@@@@@@@@@@@@@@@@@@@@@@@@.++++++++.       ",
"      .@@@@.@@@@.@@@@@@@@@@@@@@@@@@@@@@@@@.+++++++++.       ",
"      .@@@@.@@@@.@@@@@@@@@@@@@@@@@@@@@@@@@.+++++++++.       ",
"       .@@@@.@@@@.@@@@@@@@@@@@@@@@@@@@@@@.+++++++++.        ",
"        .@@@@.@@@@.@@@@@@@@@@@@@@@@@@@@@.++++++++++.        ",
"        ..@@@@.@@@@.@@@@@@@@@@@@@@@@@@@.+++++++++++.        ",
"         ..@@@@.@@@@.@@@@@@@@@@@@@@@@@.+++++++++++.         ",
"          ...@@@..@@@..@@@@@@@@@@@@@..++++++++++++.         ",
"          .++...@@...@@...@@@@@@@...+++++++++++++.          ",
"           .+++..................+++++++++++++++.           ",
"            .++++++++++++++++++++++++++++++++++.            ",
"             .++++++++++++++++++++++++++++++++.             ",
"              .++++++++++++++++++++++++++++++.              ",
"               .++++++++++++++++++++++++++++.               ",
"                ..++++++++++++++++++++++++..                ",
"                  .++++++++++++++++++++++.                  ",
"                   ...++++++++++++++++...                   ",
"                      ...++++++++++...                      ",
"                         ..........                         ",
"                                                            ",
"                                                            ",
"                                                            ",
"                                                            ",
"                                                            ",
"                                                            "};
