/* XPM */
static char * y3_xpm[] = {
"60 60 5 1",
" 	c #FFFFFF",
".	c #000000",
"+	c #8B8B00",
"@	c #CDCD00",
"#	c #8B5A00",
"                                                            ",
"                                                            ",
"                                                            ",
"                                                 ..         ",
"                                              ...+.         ",
"           .....                            ...+++..        ",
"          ..@@@...                          .++++++.        ",
"          .@@@@@@.                          .++++++.        ",
"          .@@@@@@.  ...              ...    .++++++.        ",
"          .@@@@@@.  .++....      .....+.    .+++++++.       ",
"         .@@@@@@@.  .+++++.     ..+++++.    .+++++++.       ",
"         .@@@@@@@.  .+++++.     .++++++.     .++++++.       ",
"         .@@@@@@.   .+++++.     .++++++.     .++++++.       ",
"         .@@@@@@.   .+++++.     .+++++++.    .++++++.       ",
"         .@@@@@@.   .+++++.     .+++++++.    .++++++.       ",
"         .@@@@@@.   .+++++.     .+++++++.    .+++++++.      ",
"        .@@@@@@@.  .++++++.      .++++++.    .+++++++.      ",
"        .@@@@@@@.  .++++++.      .++++++.    .+++++++.      ",
"        .@@@@@@@.  .++++++.      .++++++.     .++++++.      ",
"        .@@@@@@.   .++++++.      .++++++.     .++++++.      ",
"        .@@@@@@.   .++++++.      .++++++.     .++++++.      ",
"        .@@@@@@.   .++++++.      .++++++.     .+++++++.     ",
"       .@@@@@@@.   .++++++.      .+++++++.    .+++++++.     ",
"       .@@@@@@@.   .++++++.      .+++++++.    .+++++++.     ",
"       .@@@@@@@.   .++++++.      .+++++++.    .+++++++.     ",
"       .@@@@@@@.   .++++++.      .+++++++.     .++++++.     ",
"       .@@@@@@.    .++++++.      .+++++++.     .++++++.     ",
"       .@@@@@@.    .++++++.       .++++++.     .+++++++.    ",
"      .@@@@@@@.    .++++++.       .++++++.     .+++++++.    ",
"      .@@@@@@@.    .++++++.       .++++++.     .+++++++.    ",
"      .@@@@@@@.    .++++++.       .++++++.     .+++++++.    ",
"      .@@@@@@@.   .+++++++.       .+++++++.    .+++++++.    ",
"      .@@@@@@@.   .++++++.        .+++++++.    .+++++++.    ",
"      .@@@@@@@.   .++++++.        .+++++++.     .+++++++.   ",
"     .@@@@@@@.    .++++++.        .+++++++.     .+++++++.   ",
"     .@@@@@@@.    .++++++.        .+++++++.     .+++++++.   ",
"     .@@@@@@@.    .++++++.        .+++++++.     .+++++++.   ",
"     .@@@@@@@.    .++++++.        .+++++++.     .+++++++.   ",
"     .@@@@@@@.    .++++++.        .+++++++.     .+++++++.   ",
"     .@@@@@@@.    .++++++.         .++++++.     .++++++++.  ",
"    .@@@@@@@@.    .++++++.         .+++++++.     .+++++++.  ",
"    .@@@@@@@.     .++++++.         .+++++++.     .+++++++.  ",
"    .@@@@@@@.     .++++++.         .+++++++.     .+++++++.  ",
"    .@@@@@@@.     .++++++.         .+++++++.     .+++++++.  ",
"    .@@@@@@@.     .++++++.         .+++++++.     .+++++++.  ",
"    .@@@@@@@.     .++++++.         .+++++++.     .++++++++. ",
"   .@@@@@@@@.    .+++++++.         .+++++++.     .++++++++. ",
"   .@@@@@@@@.    .+++++++.         .+++++++.      .+++++++. ",
"   .@@@@@@@.     .+++++++.         .+++++++.      .+++++++. ",
"   .......@.     .+++++++.         .++++++++.     .++++.... ",
"   ..####...     .+++++++.          .+++++++.     .+...###. ",
"     ....#..     .+++++++.          .+++++++.     ..#####.  ",
"         ...     .+++++++.          .+++++++.      .####.   ",
"                 ....++++.          .+++++...       ....    ",
"                 .###.....          .+....##.               ",
"                  .######.          ..######.               ",
"                   .####.           ..#####.                ",
"                    ....              .....                 ",
"                                                            ",
"                                                            "};
