/* XPM */
static char * y4_xpm[] = {
"60 60 4 1",
" 	c #FFFFFF",
".	c #000000",
"+	c #8B8B00",
"@	c #8B5A00",
"                                                            ",
"                                                            ",
"                                                            ",
"                                                            ",
"                                                            ",
"          ...                       ...      .....          ",
"          .++..     ....       .....++.    ..++++.          ",
"          .++++...  .+++....   .++++++.    .+++++.          ",
"          .++++++.  .++++++.   .++++++.    .+++++.          ",
"          .++++++.  .++++++.   .++++++.    .+++++.          ",
"         .+++++++.  .++++++.   .++++++.    .++++++.         ",
"         .+++++++.  .++++++.   .++++++.    .++++++.         ",
"         .++++++.   .++++++.   .++++++.     .+++++.         ",
"         .++++++.   .++++++.   .++++++.     .+++++.         ",
"         .++++++.   .++++++.   .++++++.     .++++++.        ",
"         .++++++.   .++++++.   .++++++.     .++++++.        ",
"        .+++++++.   .++++++.   .++++++.     .++++++.        ",
"        .+++++++.   .++++++.   .+++++++.    .++++++.        ",
"        .+++++++.  ..++++++.   .+++++++.    .++++++.        ",
"        .++++++.   .+++++++.   .+++++++.     .++++++.       ",
"        .++++++.   .+++++++.   .+++++++.     .++++++.       ",
"        .++++++.   .+++++++.   .+++++++.     .++++++.       ",
"       .+++++++.   .+++++++.   .+++++++.     .++++++.       ",
"       .+++++++.   .+++++++.   .+++++++.     .++++++.       ",
"       .+++++++.   .+++++++.   .+++++++.     .+++++++.      ",
"       .+++++++.   .+++++++.   .+++++++.     .+++++++.      ",
"       .++++++.    .+++++++.   .+++++++.      .++++++.      ",
"       .++++++.    .+++++++.   .+++++++.      .++++++.      ",
"      .+++++++.    .+++++++.   .+++++++.      .++++++.      ",
"      .+++++++.    .+++++++.   .+++++++.      .+++++++.     ",
"      .+++++++.    .+++++++.    .+++++++.     .+++++++.     ",
"      .+++++++.   .+++++++.     .+++++++.     .+++++++.     ",
"      .+++++++.   .+++++++.     .+++++++.     .+++++++.     ",
"      .+++++++.   .+++++++.     .+++++++.     .+++++++.     ",
"     .+++++++.    .+++++++.     .+++++++.      .+++++++.    ",
"     .+++++++.    .+++++++.     .+++++++.      .+++++++.    ",
"     .+++++++.    .+++++++.     .+++++++.      .+++++++.    ",
"     .+++++++.    .+++++++.     .+++++++.      .+++++++.    ",
"     .+++++++.    .+++++++.     .+++++++.      .+++++++.    ",
"     .+++++++.    .+++++++.     .+++++++.      .+++++++.    ",
"    .++++++++.    .+++++++.     .+++++++.      .++++++++.   ",
"    .+++++++.     .+++++++.     .+++++++.       .+++++++.   ",
"    .+++++++.     .+++++++.     .+++++++.       .+++++++.   ",
"    .+++++++.     .+++++++.     .+++++++.       .+++++++.   ",
"    .+++++++.     .+++++++.     .+++++++.       .+++++++.   ",
"    .+++++++.     .+++++++.     .+++++++.       .+++++++.   ",
"   .++++++++.     .+++++++.     .+++++++.       .++++++++.  ",
"   .++++++++.     .+++++++.     .+++++++.       .++++++++.  ",
"   .+++++++.      .+++++++.     .+++++++.        .+++++++.  ",
"   .+++++++.      .+++++++.     .+++++++.        .+++++++.  ",
"   ..++++++.      .+++++++.     .+++++++.        .++++....  ",
"   .@...+++.      .+++++++.     .+++++++.        .....@@@.  ",
"    .@@@..+.      .+++++++.     .+++++++.         .@@@@@.   ",
"     .@@@@..      ....++++.     .++++....          .....    ",
"      .....        .@@.....     .....@@@.                   ",
"                    ..@@@..     ..@@@@..                    ",
"                      ...         ....                      ",
"                                                            ",
"                                                            ",
"                                                            "};
