/* XPM */
static char * y5_xpm[] = {
"60 60 4 1",
" 	c #FFFFFF",
".	c #000000",
"+	c #CDCD00",
"@	c #8B5A00",
"                                                            ",
"                                                            ",
"                                                            ",
"                                                            ",
"                                                            ",
"                                                            ",
"           ....                 ....        ....            ",
"          .++++.     ....      .++++..     .++++.           ",
"         .++++++.  ..++++.    .+++++++.   .++++++.          ",
"         .++++++. .+++++++.   .+++++++.   .++++++.          ",
"         .++++++. .+++++++.   .+++++++.   .++++++.          ",
"        .+++++++. .+++++++.   .+++++++.   .+++++++.         ",
"        .+++++++. .+++++++.   .+++++++.   .+++++++.         ",
"        .++++++.  .+++++++.   .+++++++.    .++++++.         ",
"        .++++++.  .+++++++.   .+++++++.    .++++++.         ",
"        .++++++.  .+++++++.   .+++++++.    .++++++.         ",
"        .++++++.  .+++++++.   .+++++++.    .++++++.         ",
"       .+++++++.  .+++++++.   .+++++++.    .+++++++.        ",
"       .+++++++.  .+++++++.   .+++++++.    .+++++++.        ",
"       .+++++++.  .+++++++.   .+++++++.    .+++++++.        ",
"       .++++++.   .+++++++.   .+++++++.     .++++++.        ",
"       .++++++.   .+++++++.   .+++++++.     .++++++.        ",
"       .++++++.   .+++++++.   .+++++++.     .++++++.        ",
"      .+++++++.   .+++++++.   .+++++++.     .+++++++.       ",
"      .+++++++.   .+++++++.   .+++++++.     .+++++++.       ",
"      .+++++++.   .+++++++.   .+++++++.     .+++++++.       ",
"      .+++++++.   .+++++++.   .+++++++.     .+++++++.       ",
"      .++++++.    .+++++++.   .+++++++.      .++++++.       ",
"      .++++++.    .+++++++.   .+++++++.      .++++++.       ",
"     .+++++++.    .+++++++.   .+++++++.      .+++++++.      ",
"     .+++++++.    .+++++++.   .+++++++.      .+++++++.      ",
"     .+++++++.    .+++++++.    .+++++++.     .+++++++.      ",
"     .+++++++.   .+++++++.     .+++++++.     .+++++++.      ",
"     .+++++++.   .+++++++.     .+++++++.     .+++++++.      ",
"     .+++++++.   .+++++++.     .+++++++.     .+++++++.      ",
"    .+++++++.    .+++++++.     .+++++++.      .+++++++.     ",
"    .+++++++.    .+++++++.     .+++++++.      .+++++++.     ",
"    .+++++++.    .+++++++.     .+++++++.      .+++++++.     ",
"    .+++++++.    .+++++++.     .+++++++.      .+++++++.     ",
"    .+++++++.    .+++++++.     .+++++++.      .+++++++.     ",
"    .+++++++.    .+++++++.     .+++++++.      .+++++++.     ",
"   .++++++++.    .+++++++.     .+++++++.      .++++++++.    ",
"   .+++++++.     .+++++++.     .+++++++.       .+++++++.    ",
"   .+++++++.     .+++++++.     .+++++++.       .+++++++.    ",
"   .+++++++.     .+++++++.     .+++++++.       .+++++++.    ",
"   .+++++++.     .+++++++.     .+++++++.       .+++++++.    ",
"   .+++++++.     .+++++++.     .+++++++.       .+++++++.    ",
"  .++++++++.     .+++++++.     .+++++++.       .++++++++.   ",
"  .++++++++.     .+++++++.     .+++++++.       .++++++++.   ",
"  .+++++++.      .+++++++.     .+++++++.        .+++...+.   ",
"  .......+.      .+++++++.     .+++++++.        .+..@@@..   ",
"  ..@@@@@..      .+++++++.     .+++...+.        ..@@@@@@.   ",
"    ...@@@.      .+...+++.     .+..@@@..        .........   ",
"       ..@.      ..@@@..+.     ..@@@@@@.                    ",
"         ..      .@@@@@@..     .@@@@@...                    ",
"                 ...@@@@@.     ......                       ",
"                    ......                                  ",
"                                                            ",
"                                                            ",
"                                                            "};
