/* XPM */
static char * Z1_xpm[] = {
"60 60 4 1",
" 	c #8b0000",
".	c #000000",
"+	c #666666",
"@	c #FF0000",
"                                                            ",
"                                                            ",
"                                                            ",
"                                                            ",
"                                                            ",
"                                                            ",
"                         ..........                         ",
"                      ...++++++++++...                      ",
"                   ...++++++++++++++++...                   ",
"                  .++++++++++++++++++++++.                  ",
"                ..++++++++++++++++++++++++..                ",
"               .++++++++++++++++++++++++++++.               ",
"              .++++++++++++++++++++++++++++++.              ",
"             .++++++++++++++++++++++++++++++++.             ",
"            .++++++++++++++++++++++++++++++++++.            ",
"           .++++.......+++++++++++++++++++++++++.           ",
"          .++...@@@@@@@...+++++++++++++++++++++++.          ",
"          ...@@@@@@@@@@@@@..+++++++++++++++++++++.          ",
"         ..@@@@@@@@@@@@@@@@@.+++++++++++++++++++++.         ",
"        ..@@@@@@@@@@@@@@@@@@@.+++++++++++++++++++++.        ",
"        .@@@@@@@@@@@@@@@@@@@@@.++++++++++++++++++++.        ",
"       .@@@@@@@@@@@@@@@@@@@@@@@.+++++++++++++++++++.        ",
"      .@@@@@@@@@@@@@@@@@@@@@@@@@.+++++++++++++++++++.       ",
"      .@@@@@@@@@@@@@@@@@@@@@@@@@.+++++++++++++++++++.       ",
"     .@@@@@@@@@@@@@@@@@@@@@@@@@@@.++++++++++++++++++.       ",
"     .@@@@@@@@@@@@@@@@@@@@@@@@@@@.+++++++++++++++++++.      ",
"    .@@@@@@@@@@@@@@@@@@@@@@@@@@@@@.++++++++++++++++++.      ",
"    .@@@@@@@@@@@@@@@@@@@@@@@@@@@@@.++++++++++++++++++.      ",
"    .@@@@@@@@@@@@@@@@@@@@@@@@@@@@@.++++++++++++++++++.      ",
"    .@@@@@@@@@@@@@@@@@@@@@@@@@@@@@.++++++++++++++++++.      ",
"    .@@@@@@@@@@@@@@@@@@@@@@@@@@@@@.++++++++++++++++++.      ",
"    .@@@@@@@@@@@@@@@@@@@@@@@@@@@@@.++++++++++++++++++.      ",
"    .@@@@@@@@@@@@@@@@@@@@@@@@@@@@@.++++++++++++++++++.      ",
"    .@@@@@@@@@@@@@@@@@@@@@@@@@@@@@.++++++++++++++++++.      ",
"     .@@@@@@@@@@@@@@@@@@@@@@@@@@@.+++++++++++++++++++.      ",
"     .@@@@@@@@@@@@@@@@@@@@@@@@@@@.++++++++++++++++++.       ",
"      .@@@@@@@@@@@@@@@@@@@@@@@@@.+++++++++++++++++++.       ",
"      .@@@@@@@@@@@@@@@@@@@@@@@@@.+++++++++++++++++++.       ",
"       .@@@@@@@@@@@@@@@@@@@@@@@.+++++++++++++++++++.        ",
"        .@@@@@@@@@@@@@@@@@@@@@.++++++++++++++++++++.        ",
"        ..@@@@@@@@@@@@@@@@@@@.+++++++++++++++++++++.        ",
"         ..@@@@@@@@@@@@@@@@@.+++++++++++++++++++++.         ",
"          ...@@@@@@@@@@@@@..+++++++++++++++++++++.          ",
"          .++...@@@@@@@...+++++++++++++++++++++++.          ",
"           .++++.......+++++++++++++++++++++++++.           ",
"            .++++++++++++++++++++++++++++++++++.            ",
"             .++++++++++++++++++++++++++++++++.             ",
"              .++++++++++++++++++++++++++++++.              ",
"               .++++++++++++++++++++++++++++.               ",
"                ..++++++++++++++++++++++++..                ",
"                  .++++++++++++++++++++++.                  ",
"                   ...++++++++++++++++...                   ",
"                      ...++++++++++...                      ",
"                         ..........                         ",
"                                                            ",
"                                                            ",
"                                                            ",
"                                                            ",
"                                                            ",
"                                                            "};
