/* XPM */
static char * z1_xpm[] = {
"60 60 4 1",
".	c #8b0000",
"+	c #000000",
"@	c #444444",
"#	c #FF0000",
"............................................................",
".........................++++++++++.........................",
".....................++++@@@@@@@@@@++++.....................",
"..................+++@@@@@@@@@@@@@@@@@@+++..................",
"................++@@@@@@@@@@@@@@@@@@@@@@@@++................",
"...............+@@@@@@@@@@@@@@@@@@@@@@@@@@@@+...............",
".............++@@@@@@@@@@@@@@@@@@@@@@@@@@@@@@++.............",
"............+@@@@@@@@@@@@@@@@@@@@@@@@@@@@@@@@@@+............",
"...........+@@@@@@@@@@@@@@@@@@@@@@@@@@@@@@@@@@@@+...........",
"..........+@@@@@@@@@@@@@@@@@@@@@@@@@@@@@@@@@@@@@@+..........",
".........+@@@@@@@@@@@@@@@@@@@@@@@@@@@@@@@@@@@@@@@@+.........",
"........+@@@@@@@@@@@@@@@@@@@@@@@@@@@@@@@@@@@@@@@@@@+........",
".......+@@@@@@@@@@@@@@@@@@@@@@@@@@@@@@@@@@@@@@@@@@@@+.......",
"......+@@@@@@@@@@@@@@@@@@@@@@@@@@@@@@@@@@@@@@@@@@@@@@+......",
"......+@@@@@@@@@@@@@@@@@@@@@@@@@@@@@@@@@@@@@@@@@@@@@@+......",
".....+@@@@@@@@@@+++++++@@@@@@@@@@@@@@@@@@@@@@@@@@@@@@@+.....",
"....+@@@@@@@@+++#######+++@@@@@@@@@@@@@@@@@@@@@@@@@@@@@+....",
"....+@@@@@@++#############++@@@@@@@@@@@@@@@@@@@@@@@@@@@+....",
"...+@@@@@@+#################+@@@@@@@@@@@@@@@@@@@@@@@@@@@+...",
"...+@@@@@+###################+@@@@@@@@@@@@@@@@@@@@@@@@@@+...",
"...+@@@@+#####################+@@@@@@@@@@@@@@@@@@@@@@@@@+...",
"..+@@@@+#######################+@@@@@@@@@@@@@@@@@@@@@@@@@+..",
"..+@@@+#########################+@@@@@@@@@@@@@@@@@@@@@@@@+..",
"..+@@@+#########################+@@@@@@@@@@@@@@@@@@@@@@@@+..",
"..+@@+###########################+@@@@@@@@@@@@@@@@@@@@@@@+..",
".+@@@+###########################+@@@@@@@@@@@@@@@@@@@@@@@@+.",
".+@@+#############################+@@@@@@@@@@@@@@@@@@@@@@@+.",
".+@@+#############################+@@@@@@@@@@@@@@@@@@@@@@@+.",
".+@@+#############################+@@@@@@@@@@@@@@@@@@@@@@@+.",
".+@@+#############################+@@@@@@@@@@@@@@@@@@@@@@@+.",
".+@@+#############################+@@@@@@@@@@@@@@@@@@@@@@@+.",
".+@@+#############################+@@@@@@@@@@@@@@@@@@@@@@@+.",
".+@@+#############################+@@@@@@@@@@@@@@@@@@@@@@@+.",
".+@@+#############################+@@@@@@@@@@@@@@@@@@@@@@@+.",
".+@@@+###########################+@@@@@@@@@@@@@@@@@@@@@@@@+.",
"..+@@+###########################+@@@@@@@@@@@@@@@@@@@@@@@+..",
"..+@@@+#########################+@@@@@@@@@@@@@@@@@@@@@@@@+..",
"..+@@@+#########################+@@@@@@@@@@@@@@@@@@@@@@@@+..",
"..+@@@@+#######################+@@@@@@@@@@@@@@@@@@@@@@@@@+..",
"...+@@@@+#####################+@@@@@@@@@@@@@@@@@@@@@@@@@+...",
"...+@@@@@+###################+@@@@@@@@@@@@@@@@@@@@@@@@@@+...",
"...+@@@@@@+#################+@@@@@@@@@@@@@@@@@@@@@@@@@@@+...",
"....+@@@@@@++#############++@@@@@@@@@@@@@@@@@@@@@@@@@@@+....",
"....+@@@@@@@@+++#######+++@@@@@@@@@@@@@@@@@@@@@@@@@@@@@+....",
".....+@@@@@@@@@@+++++++@@@@@@@@@@@@@@@@@@@@@@@@@@@@@@@+.....",
"......+@@@@@@@@@@@@@@@@@@@@@@@@@@@@@@@@@@@@@@@@@@@@@@+......",
"......+@@@@@@@@@@@@@@@@@@@@@@@@@@@@@@@@@@@@@@@@@@@@@@+......",
".......+@@@@@@@@@@@@@@@@@@@@@@@@@@@@@@@@@@@@@@@@@@@@+.......",
"........+@@@@@@@@@@@@@@@@@@@@@@@@@@@@@@@@@@@@@@@@@@+........",
".........+@@@@@@@@@@@@@@@@@@@@@@@@@@@@@@@@@@@@@@@@+.........",
"..........+@@@@@@@@@@@@@@@@@@@@@@@@@@@@@@@@@@@@@@+..........",
"...........+@@@@@@@@@@@@@@@@@@@@@@@@@@@@@@@@@@@@+...........",
"............+@@@@@@@@@@@@@@@@@@@@@@@@@@@@@@@@@@+............",
".............++@@@@@@@@@@@@@@@@@@@@@@@@@@@@@@++.............",
"...............+@@@@@@@@@@@@@@@@@@@@@@@@@@@@+...............",
"................++@@@@@@@@@@@@@@@@@@@@@@@@++................",
"..................+++@@@@@@@@@@@@@@@@@@+++..................",
".....................++++@@@@@@@@@@++++.....................",
".........................++++++++++.........................",
"............................................................"};
