/* XPM */
static char * Z8_xpm[] = {
"60 60 4 1",
" 	c #8b0000",
".	c #000000",
"+	c #666666",
"@	c #00FF00",
"                                                            ",
"                                                            ",
"                                                            ",
"                                                            ",
"                                                            ",
"                                                            ",
"                         ..........                         ",
"                      ...++++++++++...                      ",
"                   ...++++++++++++++++...                   ",
"                  .++++++++++++++++++++++.                  ",
"                ..++++++++++++++++++++++++..                ",
"               .++++++++++++++++++++++++++++.               ",
"              .++++++++++++++++++++++++++++++.              ",
"             .++++++++++++++++++++++++++++++++.             ",
"            .++++++++++++++++++++++++++++++++++.            ",
"           .++++......................++++++++++.           ",
"          .++...@@...@@...@@...@@@@@@@...++++++++.          ",
"          ...@@@..@@@..@@@..@@@@@@@@@@@@@..+++++++.         ",
"         ..@@@@.@@@@.@@@@.@@@@@@@@@@@@@@@@@.++++++.         ",
"        ..@@@@.@@@@.@@@@.@@@@@@@@@@@@@@@@@@@.++++++.        ",
"        .@@@@.@@@@.@@@@.@@@@@@@@@@@@@@@@@@@@@.+++++.        ",
"       .@@@@.@@@@.@@@@.@@@@@@@@@@@@@@@@@@@@@@@.++++.        ",
"      .@@@@.@@@@.@@@@.@@@@@@@@@@@@@@@@@@@@@@@@@.++++.       ",
"      .@@@@.@@@@.@@@@.@@@@@@@@@@@@@@@@@@@@@@@@@.++++.       ",
"     .@@@@.@@@@.@@@@.@@@@@@@@@@@@@@@@@@@@@@@@@@@.+++.       ",
"     .@@@@.@@@@.@@@@.@@@@@@@@@@@@@@@@@@@@@@@@@@@.++++.      ",
"    .@@@@.@@@@.@@@@.@@@@@@@@@@@@@@@@@@@@@@@@@@@@@.+++.      ",
"    .@@@@.@@@@.@@@@.@@@@@@@@@@@@@@@@@@@@@@@@@@@@@.+++.      ",
"    .@@@@.@@@@.@@@@.@@@@@@@@@@@@@@@@@@@@@@@@@@@@@.+++.      ",
"    .@@@@.@@@@.@@@@.@@@@@@@@@@@@@@@@@@@@@@@@@@@@@.+++.      ",
"    .@@@@.@@@@.@@@@.@@@@@@@@@@@@@@@@@@@@@@@@@@@@@.+++.      ",
"    .@@@@.@@@@.@@@@.@@@@@@@@@@@@@@@@@@@@@@@@@@@@@.+++.      ",
"    .@@@@.@@@@.@@@@.@@@@@@@@@@@@@@@@@@@@@@@@@@@@@.+++.      ",
"    .@@@@.@@@@.@@@@.@@@@@@@@@@@@@@@@@@@@@@@@@@@@@.+++.      ",
"     .@@@@.@@@@.@@@@.@@@@@@@@@@@@@@@@@@@@@@@@@@@.++++.      ",
"     .@@@@.@@@@.@@@@.@@@@@@@@@@@@@@@@@@@@@@@@@@@.+++.       ",
"      .@@@@.@@@@.@@@@.@@@@@@@@@@@@@@@@@@@@@@@@@.++++.       ",
"      .@@@@.@@@@.@@@@.@@@@@@@@@@@@@@@@@@@@@@@@@.++++.       ",
"       .@@@@.@@@@.@@@@.@@@@@@@@@@@@@@@@@@@@@@@.++++.        ",
"        .@@@@.@@@@.@@@@.@@@@@@@@@@@@@@@@@@@@@.+++++.        ",
"        ..@@@@.@@@@.@@@@.@@@@@@@@@@@@@@@@@@@.++++++.        ",
"         ..@@@@.@@@@.@@@@.@@@@@@@@@@@@@@@@@.++++++.         ",
"          ...@@@..@@@..@@@..@@@@@@@@@@@@@..+++++++.         ",
"          .++...@@...@@...@@...@@@@@@@...++++++++.          ",
"           .++++......................++++++++++.           ",
"            .++++++++++++++++++++++++++++++++++.            ",
"             .++++++++++++++++++++++++++++++++.             ",
"              .++++++++++++++++++++++++++++++.              ",
"               .++++++++++++++++++++++++++++.               ",
"                ..++++++++++++++++++++++++..                ",
"                  .++++++++++++++++++++++.                  ",
"                   ...++++++++++++++++...                   ",
"                      ...++++++++++...                      ",
"                         ..........                         ",
"                                                            ",
"                                                            ",
"                                                            ",
"                                                            ",
"                                                            ",
"                                                            "};
